<?xml version="1.0" encoding="UTF-8" standalone="no"?>
<!-- Created with Inkscape (http://www.inkscape.org/) -->

<svg
   xmlns:dc="http://purl.org/dc/elements/1.1/"
   xmlns:cc="http://creativecommons.org/ns#"
   xmlns:rdf="http://www.w3.org/1999/02/22-rdf-syntax-ns#"
   xmlns:svg="http://www.w3.org/2000/svg"
   xmlns="http://www.w3.org/2000/svg"
   xmlns:sodipodi="http://sodipodi.sourceforge.net/DTD/sodipodi-0.dtd"
   xmlns:inkscape="http://www.inkscape.org/namespaces/inkscape"
   id="svg5334"
   version="1.1"
   inkscape:version="0.91 r13725"
   width="114"
   height="114"
   viewBox="0 0 114 114"
   sodipodi:docname="check_radio_sheet.svg">
  <metadata
     id="metadata5340">
    <rdf:RDF>
      <cc:Work
         rdf:about="">
        <dc:format>image/svg+xml</dc:format>
        <dc:type
           rdf:resource="http://purl.org/dc/dcmitype/StillImage" />
        <dc:title></dc:title>
      </cc:Work>
    </rdf:RDF>
  </metadata>
  <defs
     id="defs5338" />
  <sodipodi:namedview
     pagecolor="#ffffff"
     bordercolor="#666666"
     borderopacity="1"
     objecttolerance="10"
     gridtolerance="10"
     guidetolerance="10"
     inkscape:pageopacity="0"
     inkscape:pageshadow="2"
     inkscape:window-width="1366"
     inkscape:window-height="746"
     id="namedview5336"
     showgrid="false"
     inkscape:snap-page="true"
     inkscape:snap-bbox="true"
     inkscape:bbox-paths="true"
     inkscape:bbox-nodes="true"
     inkscape:zoom="2.2081871"
     inkscape:cx="-23.775159"
     inkscape:cy="53.4375"
     inkscape:window-x="-8"
     inkscape:window-y="-8"
     inkscape:window-maximized="1"
     inkscape:current-layer="svg5334" />
  <g
     id="g5953"
     transform="matrix(1.9999996,0,0,1.9999996,-46.252104,-44.440663)">
    <g
       inkscape:export-ydpi="180"
       inkscape:export-xdpi="180"
       inkscape:export-filename="C:\Users\Akmal Irfan\Documents\SVG files\check_unchecked.png"
       transform="translate(-98.672703,-484.51328)"
       id="g3779">
      <circle
         r="13.356522"
         cy="510.46902"
         cx="118.30062"
         transform="matrix(0.71126303,0,0,0.71126303,47.155903,153.15587)"
         id="path3775"
         style="color:#000000;display:inline;overflow:visible;visibility:visible;fill:#e7e7e7;fill-opacity:1;fill-rule:nonzero;stroke:none;stroke-width:1;marker:none;enable-background:accumulate" />
      <polygon
         points="50,269.242 199.733,419.015 462,156.726 398.218,92.985 199.729,291.475 113.754,205.476 "
         id="check-mark-icon-1"
         transform="matrix(0.02823972,0,0,0.02823972,124.06939,509.00425)"
         style="fill:#acacac;fill-opacity:1" />
    </g>
    <g
       inkscape:export-ydpi="180"
       inkscape:export-xdpi="180"
       inkscape:export-filename="C:\Users\Akmal Irfan\Documents\SVG files\x_unchecked.png"
       id="g3783"
       transform="translate(-70.687595,-465.51328)">
      <circle
         r="13.356522"
         cy="510.46902"
         cx="118.30062"
         style="color:#000000;display:inline;overflow:visible;visibility:visible;fill:#e7e7e7;fill-opacity:1;fill-rule:nonzero;stroke:none;stroke-width:1;marker:none;enable-background:accumulate"
         id="path3005"
         transform="matrix(0.71126303,0,0,0.71126303,19.170807,153.15587)" />
      <polygon
         points="256.002,319.734 374.652,438.378 438.393,374.595 319.757,255.977 438.378,137.348 374.595,73.607 255.995,192.225 137.375,73.622 73.607,137.352 192.246,255.983 73.622,374.625 137.352,438.393 "
         id="x-mark-icon-7"
         transform="matrix(0.02823972,0,0,0.02823972,96.084293,509.00425)"
         style="fill:#acacac;fill-opacity:1" />
    </g>
    <g
       inkscape:export-ydpi="180"
       inkscape:export-xdpi="180"
       inkscape:export-filename="C:\Users\Akmal Irfan\Documents\SVG files\na_unchecked.png"
       id="g3799"
       transform="translate(-126.97581,-446.51328)">
      <circle
         r="13.356522"
         cy="510.46902"
         cx="118.30062"
         style="color:#000000;display:inline;overflow:visible;visibility:visible;fill:#e7e7e7;fill-opacity:1;fill-rule:nonzero;stroke:none;stroke-width:1;marker:none;enable-background:accumulate"
         id="path3777"
         transform="matrix(0.71126303,0,0,0.71126303,75.459008,153.15587)" />
      <path
         style="font-style:normal;font-variant:normal;font-weight:bold;font-stretch:normal;font-size:8.04956722px;line-height:125%;font-family:'Open Sans';-inkscape-font-specification:'Open Sans Bold';text-align:center;letter-spacing:-0.36446652px;word-spacing:0px;writing-mode:lr-tb;text-anchor:middle;fill:#acacac;fill-opacity:1;stroke:none"
         d="m 162.1014,513.34299 -2.03125,5.78125 1.3125,0 0.4375,-1.375 2.09375,0 0.40625,1.375 1.3125,0 -2.03125,-5.78125 -1.5,0 z m -7.46875,0.0312 0,5.75 1.09375,0 0,-2.71875 c 0,-0.32753 -0.0439,-0.85725 -0.0937,-1.625 l 0.0312,0 2.5,4.34375 1.5625,0 0,-5.75 -1.09375,0 0,2.71875 c 0,0.3092 0.0232,0.84696 0.0625,1.59375 l -0.0312,0 -2.5,-4.3125 -1.53125,0 z m 8.21875,0.875 c 0.021,0.0943 0.0765,0.21254 0.125,0.375 0.0485,0.16246 0.23981,0.85435 0.625,2.09375 l -1.46875,0 c 0.40876,-1.32325 0.63225,-2.13335 0.71875,-2.46875 z"
         id="path3792"
         inkscape:connector-curvature="0" />
    </g>
    <g
       inkscape:export-ydpi="180.00014"
       inkscape:export-xdpi="180.00014"
       inkscape:export-filename="C:\Users\Akmal Irfan\Documents\SVG files\check_checked.png"
       id="g3803"
       transform="translate(-79.672703,-484.51328)">
      <circle
         r="13.356522"
         cy="510.46902"
         cx="118.30062"
         style="color:#000000;display:inline;overflow:visible;visibility:visible;fill:#dbff57;fill-opacity:1;fill-rule:nonzero;stroke:none;stroke-width:1;marker:none;enable-background:accumulate"
         id="path3805"
         transform="matrix(0.71126303,0,0,0.71126303,47.155903,153.15587)" />
      <polygon
         style="fill:#98c100;fill-opacity:1"
         transform="matrix(0.02823972,0,0,0.02823972,124.06939,509.00425)"
         id="polygon3807"
         points="462,156.726 398.218,92.985 199.729,291.475 113.754,205.476 50,269.242 199.733,419.015 " />
    </g>
    <g
       inkscape:export-ydpi="180.00014"
       inkscape:export-xdpi="180.00014"
       inkscape:export-filename="C:\Users\Akmal Irfan\Documents\SVG files\x_checked.png"
       transform="translate(-51.687595,-465.51328)"
       id="g3809">
      <circle
         r="13.356522"
         cy="510.46902"
         cx="118.30062"
         transform="matrix(0.71126303,0,0,0.71126303,19.170807,153.15587)"
         id="path3811"
         style="color:#000000;display:inline;overflow:visible;visibility:visible;fill:#ffafaf;fill-opacity:1;fill-rule:nonzero;stroke:none;stroke-width:1;marker:none;enable-background:accumulate" />
      <polygon
         style="fill:#ff6767;fill-opacity:1"
         transform="matrix(0.02823972,0,0,0.02823972,96.084293,509.00425)"
         id="polygon3813"
         points="256.002,319.734 374.652,438.378 438.393,374.595 319.757,255.977 438.378,137.348 374.595,73.607 255.995,192.225 137.375,73.622 73.607,137.352 192.246,255.983 73.622,374.625 137.352,438.393 " />
    </g>
    <g
       inkscape:export-ydpi="180.00014"
       inkscape:export-xdpi="180.00014"
       inkscape:export-filename="C:\Users\Akmal Irfan\Documents\SVG files\na_checked.png"
       transform="translate(-107.97581,-446.51328)"
       id="g3815">
      <circle
         r="13.356522"
         cy="510.46902"
         cx="118.30062"
         transform="matrix(0.71126303,0,0,0.71126303,75.459008,153.15587)"
         id="path3817"
         style="color:#000000;display:inline;overflow:visible;visibility:visible;fill:#8adeff;fill-opacity:1;fill-rule:nonzero;stroke:none;stroke-width:1;marker:none;enable-background:accumulate" />
      <path
         inkscape:connector-curvature="0"
         id="path3819"
         d="m 162.1014,513.34299 -2.03125,5.78125 1.3125,0 0.4375,-1.375 2.09375,0 0.40625,1.375 1.3125,0 -2.03125,-5.78125 -1.5,0 z m -7.46875,0.0312 0,5.75 1.09375,0 0,-2.71875 c 0,-0.32753 -0.0439,-0.85725 -0.0937,-1.625 l 0.0312,0 2.5,4.34375 1.5625,0 0,-5.75 -1.09375,0 0,2.71875 c 0,0.3092 0.0232,0.84696 0.0625,1.59375 l -0.0312,0 -2.5,-4.3125 -1.53125,0 z m 8.21875,0.875 c 0.021,0.0943 0.0765,0.21254 0.125,0.375 0.0485,0.16246 0.23981,0.85435 0.625,2.09375 l -1.46875,0 c 0.40876,-1.32325 0.63225,-2.13335 0.71875,-2.46875 z"
         style="font-style:normal;font-variant:normal;font-weight:bold;font-stretch:normal;font-size:8.04956722px;line-height:125%;font-family:'Open Sans';-inkscape-font-specification:'Open Sans Bold';text-align:center;letter-spacing:-0.36446652px;word-spacing:0px;writing-mode:lr-tb;text-anchor:middle;fill:#0095cf;fill-opacity:1;stroke:none" />
    </g>
    <path
       style="fill:#b77fcb;fill-opacity:1"
       inkscape:connector-curvature="0"
       id="photo-camera-7-icon"
       d="m 70.672186,29.184132 c -1.52563,0 -2.76681,1.24118 -2.76681,2.7668 0,1.52563 1.24118,2.76681 2.76681,2.76681 1.52562,0 2.7668,-1.24118 2.7668,-2.76681 0,-1.52562 -1.24118,-2.7668 -2.7668,-2.7668 z m 5.99514,-6.96378 -12.08252,0 c -1.91024,0 -3.45874,1.5485 -3.45874,3.45874 l 0,12.08252 c 0,1.91019 1.5485,3.45874 3.45874,3.45874 l 12.08252,0 c 1.91024,0 3.45874,-1.54855 3.45874,-3.45874 l 0,-12.08252 c 0,-1.91024 -1.5485,-3.45874 -3.45874,-3.45874 z m -5.99514,14.57263 c -2.66992,0 -4.84205,-2.17218 -4.84205,-4.84205 0,-2.66987 2.17213,-4.84205 4.84205,-4.84205 2.66991,0 4.84205,2.17214 4.84205,4.84205 0,2.66992 -2.17214,4.84205 -4.84205,4.84205 z m 7.0686,-10.13263 c 0,0.30562 -0.24779,0.5534 -0.5534,0.5534 l -1.68325,0 c -0.30562,0 -0.5534,-0.24778 -0.5534,-0.5534 l 0,-1.68325 c 0,-0.30561 0.24778,-0.5534 0.5534,-0.5534 l 1.68325,0 c 0.30561,0 0.5534,0.24779 0.5534,0.5534 l 0,1.68325 z" />
  </g>
</svg>
